# xmcd
#
# Track frame offsets:
#	182
#	19757
#	31607
#	49982
#	62432
#	77207
#	95207
#	109307
#	124607
#	140207
#	156782
#	167882
#
# Disc length: 2523 seconds
#
# Revision: 1
# Processed by: cddbd v1.5.1PL0 Copyright (c) Steve Scherf et al.
# Submitted via: audiograbber 1.82.02
#
DISCID=a209d90c
DTITLE=Marion Martin - My Love Is Like A Red Red Rose
DYEAR=1900
DGENRE=
TTITLE0=Mull Of Kintyre
TTITLE1=Road To The Isles
TTITLE2=Tell Me Ot's Not True
TTITLE3=Annie's Song
TTITLE4=Scotland Again
TTITLE5=Memory (Theme From Cats)
TTITLE6=Alone Again (Naturally)
TTITLE7=The Road and The Miles To Dundee
TTITLE8=The Battle's Over
TTITLE9=The Rose
TTITLE10=My Love Is Like A Red Red Rose
TTITLE11=Australia
EXTD=
EXTT0=
EXTT1=
EXTT2=
EXTT3=
EXTT4=
EXTT5=
EXTT6=
EXTT7=
EXTT8=
EXTT9=
EXTT10=
EXTT11=
PLAYORDER=
